# Blender v2.83.1 OBJ File: 'MAW_misc.blend'
# www.blender.org
mtllib cave.mtl
o cave_Main_Geometry.004
v 40.847118 5.000000 -5.049003
v 44.549660 5.000000 0.532615
v 42.698387 4.984493 -2.258194
v 43.760880 5.000000 1.201746
v 43.590275 5.000000 6.306497
v 44.675732 5.000000 6.360015
v 44.675732 7.000000 6.360015
v 44.549660 7.000000 0.532615
v 43.760880 7.000000 1.201746
v 43.652870 7.000000 6.513830
v 40.058350 5.000000 -4.379872
v 43.624020 4.968987 -0.862793
v 41.772758 4.984493 -3.653597
v 40.847118 7.000000 -5.049003
v 41.909615 5.000000 -1.589063
v 42.835247 5.000000 -0.193658
v 40.058350 7.000000 -4.379872
v 40.983982 5.000000 -2.984468
v 33.969711 5.009517 -5.214561
v 33.952480 5.000000 -6.239760
v 33.952480 7.000000 -6.239760
v 34.037762 7.000000 -5.208926
v 32.051109 5.000000 20.500292
v 30.315201 5.043827 17.784161
v 32.571980 5.000000 15.463285
v 33.160358 5.000000 16.870819
v 32.051109 7.000000 20.500292
v 32.984749 7.000000 16.610197
v 30.345856 6.953484 17.769770
v 32.571980 7.000000 15.463285
v 35.807446 5.000000 15.493157
v 36.529778 5.000000 16.460558
v 36.529778 7.000000 16.460558
v 35.845718 7.000000 15.684697
v 40.508469 5.000000 13.029330
v 41.192539 5.000000 13.805180
v 41.192539 7.000000 13.805180
v 40.508469 7.000000 13.029330
v 25.927376 4.959785 -5.395753
v 25.411329 5.000000 -6.260391
v 25.411329 7.000000 -6.260391
v 25.938290 7.000000 -5.370328
v 22.937851 5.008115 -3.192649
v 21.583738 5.000000 -4.417251
v 21.583738 7.000000 -4.417251
v 22.945221 7.000000 -3.207585
v 21.468470 5.036244 -0.230291
v 19.278181 5.000000 -0.128554
v 24.265379 5.030201 3.890734
v 25.297009 5.025702 5.573348
v 19.278181 7.000000 -0.128554
v 21.461420 7.000000 -0.219966
v 23.172197 4.939119 2.502191
v 20.911116 4.904418 2.281397
v 28.977160 4.958956 4.137929
v 20.911116 6.904418 2.281397
v 23.179256 6.904418 2.497532
v 21.863676 4.904418 4.153434
v 19.188383 4.904418 4.240554
v 22.939146 7.000000 6.340880
v 22.225121 7.000000 6.558449
v 22.936214 4.999487 6.337910
v 19.188383 6.904418 4.240554
v 21.863676 6.904418 4.153434
v 22.392950 4.998974 9.531827
v 22.518740 5.000000 8.459779
v 21.726305 7.000000 8.751873
v 22.398815 7.000000 9.537768
v 21.066750 5.000000 10.315330
v 20.394251 5.000000 9.529435
v 20.394251 7.000000 9.529435
v 21.066750 7.000000 10.315330
v 17.776011 5.000000 11.947690
v 17.776011 7.000000 11.947690
v 25.615456 4.978047 -0.531831
v 29.501112 4.966078 -2.790704
v 33.811893 4.881829 12.215224
v 32.096310 4.939864 9.096431
v 27.635942 5.016702 10.463208
v 20.581480 5.000000 13.959740
v 17.290739 5.000000 15.592100
v 17.290739 7.000000 15.592100
v 20.581480 7.000000 13.959740
v 18.746273 5.000000 24.284058
v 14.000000 5.500000 17.224461
v 14.000000 5.000000 24.500000
v 18.746273 7.000000 24.284058
v 14.000000 7.000000 17.224461
v 28.631260 4.998994 13.622511
v 22.184900 4.959951 21.055910
v 23.783495 4.999600 13.825598
v 25.907600 4.953966 18.642080
v 22.277300 5.005985 23.413830
v 26.982473 5.000000 22.375631
v 22.209579 6.958987 21.074751
v 25.932280 6.953001 18.660919
v 22.301979 7.005021 23.432659
v 26.753378 6.956734 21.695538
v 27.459200 4.915397 21.329411
v 19.685066 7.000000 21.630053
v 27.455307 4.968501 2.171470
v 22.831600 7.000000 5.091301
v 22.078310 7.000000 5.607784
v 22.830133 4.999743 5.089817
v 23.040041 4.999230 8.290553
v 22.371929 7.000000 7.509114
v 23.044439 7.000000 8.295010
v 30.415936 4.949410 6.468849
v 26.549879 5.021202 8.179395
v 22.082293 5.000000 5.586318
v 22.178242 5.092438 6.605355
v 22.384285 5.000000 7.588020
v 40.782677 4.980895 3.880717
v 35.101673 4.985150 -3.421154
v 36.353512 4.983439 -1.626117
v 39.218334 4.981389 2.278116
v 37.605186 4.982214 0.323475
v 36.501869 4.948153 7.301263
v 38.258965 4.914087 9.804873
v 31.392462 4.960600 0.108372
v 34.706871 4.951752 4.844476
v 33.008209 4.955867 2.420643
v 22.203159 5.022180 -1.711470
v 20.430960 5.000000 -2.272902
v 20.430960 7.000000 -2.272902
v 27.137085 4.992329 4.855639
v 22.203320 7.000000 -1.713776
v 25.860344 4.999351 3.031102
v 24.393826 4.958583 0.985180
v 29.866127 4.978283 9.779819
v 28.482906 4.985306 7.324122
v 31.221577 4.940412 12.918867
v 19.685066 5.000000 21.630053
v 17.060417 7.000000 20.442192
v 19.094595 5.000000 18.264002
v 19.094595 7.000000 18.264002
v 14.000000 7.548877 24.500000
v 14.384136 7.864728 24.482523
v 14.232099 7.869523 24.192261
v 14.000000 7.890603 24.111237
vt 0.439062 0.417398
vt 0.439062 0.417398
vt 0.439062 0.417398
vt 0.423932 0.406490
vt 0.424149 0.406019
vt 0.427160 0.405471
vt 0.427159 0.406166
vt 0.434322 0.397557
vt 0.433541 0.397307
vt 0.434725 0.395315
vt 0.436568 0.396079
vt 0.427616 0.407511
vt 0.423231 0.407706
vt 0.423743 0.405084
vt 0.426535 0.404297
vt 0.422277 0.405392
vt 0.421921 0.406456
vt 0.420363 0.405715
vt 0.420849 0.404914
vt 0.418905 0.404946
vt 0.417633 0.403424
vt 0.417954 0.403050
vt 0.419527 0.404170
vt 0.416261 0.399939
vt 0.416865 0.399869
vt 0.417171 0.404597
vt 0.414855 0.400421
vt 0.418051 0.399504
vt 0.418934 0.402849
vt 0.433675 0.400101
vt 0.433231 0.399596
vt 0.437710 0.396899
vt 0.435567 0.398408
vt 0.432190 0.396796
vt 0.433489 0.394766
vt 0.431854 0.403300
vt 0.431293 0.402875
vt 0.435031 0.400642
vt 0.431880 0.399126
vt 0.432988 0.404322
vt 0.430296 0.401999
vt 0.419281 0.400018
vt 0.420573 0.400672
vt 0.415595 0.391862
vt 0.416673 0.392368
vt 0.415822 0.394699
vt 0.415190 0.394504
vt 0.413788 0.394517
vt 0.417193 0.394819
vt 0.416420 0.390566
vt 0.417293 0.391417
vt 0.414273 0.391403
vt 0.417700 0.392925
vt 0.419214 0.388629
vt 0.420169 0.389951
vt 0.418090 0.390481
vt 0.417275 0.389399
vt 0.415229 0.389742
vt 0.418269 0.392216
vt 0.423438 0.402149
vt 0.424660 0.402880
vt 0.425459 0.386552
vt 0.426044 0.387245
vt 0.425065 0.387719
vt 0.424245 0.387277
vt 0.416434 0.388374
vt 0.418324 0.387319
vt 0.420882 0.391168
vt 0.418824 0.391515
vt 0.427650 0.394974
vt 0.427336 0.396651
vt 0.425297 0.395712
vt 0.425679 0.394199
vt 0.426902 0.388721
vt 0.427974 0.393230
vt 0.426077 0.392604
vt 0.425772 0.389407
vt 0.428198 0.400726
vt 0.426442 0.399788
vt 0.429659 0.397692
vt 0.423902 0.389900
vt 0.422777 0.390174
vt 0.422435 0.388581
vt 0.423378 0.388182
vt 0.423843 0.392060
vt 0.422322 0.391701
vt 0.420247 0.387276
vt 0.419683 0.386217
vt 0.421924 0.401307
vt 0.421244 0.388694
vt 0.421841 0.390155
vt 0.421133 0.397239
vt 0.419085 0.396458
vt 0.419749 0.393744
vt 0.421867 0.394321
vt 0.423300 0.387529
vt 0.422392 0.387798
vt 0.423663 0.393583
vt 0.423462 0.395015
vt 0.422101 0.393052
vt 0.423516 0.385550
vt 0.424106 0.385235
vt 0.428561 0.383978
vt 0.427099 0.386400
vt 0.426559 0.385667
vt 0.422841 0.398001
vt 0.425657 0.384356
vt 0.427849 0.387866
vt 0.427844 0.382778
vt 0.424644 0.398851
vt 0.420334 0.392614
vt 0.430093 0.395787
vt 0.430232 0.381450
vt 0.431319 0.382838
vt 0.430556 0.387354
vt 0.430105 0.385716
vt 0.433844 0.384616
vt 0.435688 0.382849
vt 0.438224 0.383998
vt 0.436627 0.384799
vt 0.432488 0.379569
vt 0.433333 0.380280
vt 0.434065 0.386290
vt 0.437599 0.392915
vt 0.435572 0.392368
vt 0.436902 0.390350
vt 0.437750 0.390496
vt 0.436967 0.386376
vt 0.436501 0.388929
vt 0.434243 0.391687
vt 0.439135 0.393281
vt 0.438649 0.393937
vt 0.439134 0.388953
vt 0.439473 0.385234
vt 0.430450 0.393803
vt 0.430427 0.390065
vt 0.440349 0.381863
vt 0.439283 0.380965
vt 0.439505 0.380853
vt 0.439053 0.380676
vt 0.439096 0.380861
vt 0.422081 0.385977
vt 0.422844 0.385892
vn -1.0000 0.0000 0.0000
vn 0.4887 0.7084 -0.5093
vn -0.6561 0.7444 -0.1239
vn -0.6216 0.7677 -0.1556
vn 0.7357 0.6593 0.1552
vn 0.2855 0.8891 0.3577
vn -0.2909 0.6344 -0.7161
vn -0.3096 0.7765 -0.5487
vn 0.5409 0.6105 0.5784
vn 0.9784 0.0000 0.2065
vn 0.9537 0.0000 -0.3006
vn -0.7331 0.6466 0.2108
vn -0.7235 0.6715 -0.1599
vn -0.2596 0.9618 -0.0872
vn 0.0109 0.8870 -0.4617
vn 0.0169 0.9998 -0.0086
vn 0.0072 0.9999 -0.0031
vn 0.5243 0.8372 0.1554
vn 0.6029 0.6906 -0.3994
vn 0.0071 0.7559 0.6547
vn 0.0068 0.9736 0.2281
vn 0.0628 0.6886 -0.7224
vn -0.0556 0.7194 0.6923
vn 0.5474 0.0000 -0.8368
vn 0.0866 0.0000 -0.9962
vn -0.0580 0.6887 0.7227
vn -0.4157 0.6241 0.6616
vn 0.2187 0.6711 0.7083
vn -0.1390 0.7933 -0.5927
vn 0.6819 0.0030 0.7314
vn 0.6416 0.0779 0.7631
vn -0.2062 0.8073 -0.5529
vn -0.3630 0.6409 -0.6763
vn 0.5616 0.6448 0.5184
vn -0.4443 0.7923 -0.4181
vn 0.2948 0.0350 0.9549
vn -0.1718 0.6650 -0.7268
vn 0.7348 0.0000 0.6782
vn -0.5529 0.6510 -0.5200
vn -0.0025 0.9999 0.0075
vn -0.0031 1.0000 0.0030
vn -0.5289 0.6437 -0.5530
vn 0.4922 0.7645 0.4161
vn 0.1860 0.7839 0.5923
vn -0.1663 0.6601 -0.7326
vn -0.2213 0.0000 -0.9752
vn 0.2322 0.6409 0.7316
vn -0.6228 0.7071 -0.3348
vn 0.6332 0.7072 0.3143
vn -0.6912 0.0000 -0.7226
vn 0.5798 0.6538 0.4862
vn -0.4906 0.8713 -0.0101
vn 0.8035 0.5932 0.0490
vn 0.5447 0.8386 -0.0092
vn -0.7906 0.6105 0.0468
vn -0.8808 0.0000 -0.4735
vn 0.6375 0.7012 0.3192
vn -0.0037 1.0000 0.0035
vn -0.0050 1.0000 0.0042
vn -0.4755 0.7566 -0.4487
vn 0.5519 0.6484 0.5244
vn 0.7415 0.6514 0.1607
vn -0.6554 0.7551 -0.0140
vn -0.9984 0.0000 0.0573
vn -0.9975 0.0000 -0.0710
vn 0.4924 0.8701 0.0203
vn 0.7980 0.6018 -0.0320
vn 0.0183 0.9998 -0.0016
vn 0.0098 0.9999 0.0043
vn 0.0081 0.9999 -0.0018
vn 0.0158 0.9998 -0.0059
vn 0.4578 0.7739 0.4375
vn 0.0080 0.9999 -0.0000
vn 0.0050 1.0000 -0.0017
vn 0.6198 0.7727 0.1370
vn -0.0107 0.9999 -0.0027
vn -0.0019 0.9999 0.0081
vn 0.0033 0.9999 -0.0105
vn 0.6990 0.7136 -0.0458
vn 0.5354 0.7970 -0.2795
vn 0.6863 0.6410 -0.3435
vn 0.7094 0.7030 -0.0493
vn 0.0035 1.0000 -0.0011
vn -0.0179 0.9997 -0.0151
vn -0.8123 0.5589 0.1663
vn -0.9815 -0.0043 0.1915
vn -0.0034 1.0000 0.0032
vn 0.4529 0.8889 -0.0679
vn 0.7919 0.6078 -0.0593
vn -0.0004 1.0000 0.0025
vn -0.0004 1.0000 0.0037
vn 0.0051 1.0000 0.0002
vn 0.0053 1.0000 -0.0027
vn -0.6943 0.7118 0.1058
vn -0.4570 0.8390 0.2953
vn 0.0157 0.9998 -0.0064
vn 0.0085 0.9999 -0.0020
vn 0.0035 0.9999 -0.0109
vn -0.9951 -0.0906 -0.0380
vn -0.8258 -0.1283 -0.5492
vn -0.6834 0.6381 -0.3547
vn 0.4766 0.8202 0.3164
vn -0.4257 0.6786 -0.5985
vn -0.0011 1.0000 0.0030
vn -0.5795 -0.0146 -0.8148
vn 0.6535 0.6202 0.4338
vn -0.8876 0.0000 -0.4606
vn -0.0018 1.0000 0.0034
vn 0.0040 1.0000 -0.0009
vn 0.0143 0.9998 -0.0113
vn -0.8268 0.0000 -0.5625
vn -0.4385 0.8309 -0.3424
vn 0.6656 0.7291 0.1591
vn 0.7087 0.6853 0.1678
vn 0.6384 0.7680 0.0508
vn 0.0645 0.9969 -0.0447
vn 0.5226 0.5652 0.6382
vn 0.7537 0.6541 0.0628
vn -0.8432 0.0000 -0.5375
vn -0.6596 0.5943 -0.4601
vn 0.7552 0.6525 0.0626
vn 0.2462 0.7618 0.5992
vn -0.2788 0.6679 -0.6900
vn -0.7001 0.6136 -0.3652
vn -0.4501 0.6314 0.6314
vn 0.6399 0.7668 0.0504
vn -0.4729 0.8445 -0.2514
vn -0.2482 0.7591 -0.6018
vn 0.6295 0.2236 0.7441
vn 0.5295 0.0676 0.8456
vn -0.4081 0.7349 0.5416
vn 0.5591 0.3554 0.7490
vn 0.0041 1.0000 -0.0024
vn -0.0008 1.0000 0.0030
vn -0.6738 0.0000 0.7389
vn -0.0094 0.7345 0.6786
vn -0.6721 0.2159 0.7082
vn -0.6787 0.7246 0.1196
vn -0.0809 0.9857 0.1476
vn -0.7953 0.0032 0.6061
vn -0.9884 0.0131 0.1514
usemtl Master
s off
f 137/1/1 140/2/1 88/3/1
s 1
f 8/4/2 9/5/3 10/6/4 7/7/5
f 28/8/6 30/9/7 29/10/8 27/11/9
f 8/4/2 7/7/5 6/12/10 2/13/11
f 4/14/12 5/15/13 10/6/4 9/5/3
f 4/14/12 9/5/3 16/16/14
f 8/4/2 2/13/11 12/17/15
f 12/17/15 3/18/16 15/19/17 16/16/14
f 8/4/2 12/17/15 16/16/14 9/5/3
f 13/20/18 14/21/19 17/22/20 18/23/21
f 3/18/16 13/20/18 18/23/21 15/19/17
f 14/21/19 21/24/22 22/25/23 17/22/20
f 1/26/24 20/27/25 21/24/22 14/21/19
f 17/22/20 22/25/23 19/28/26 11/29/27
f 33/30/28 34/31/29 30/9/7 28/8/6
f 28/8/6 27/11/9 23/32/30 26/33/31
f 30/9/7 25/34/32 24/35/33 29/10/8
f 37/36/34 38/37/35 34/31/29 33/30/28
f 33/30/28 28/8/6 26/33/31 32/38/36
f 34/31/29 31/39/37 25/34/32 30/9/7
f 7/7/5 10/6/4 38/37/35 37/36/34
f 37/36/34 33/30/28 32/38/36 36/40/38
f 35/41/39 31/39/37 34/31/29 38/37/35
f 18/23/21 11/29/27 114/42/40 115/43/41
f 7/7/5 37/36/34 36/40/38 6/12/10
f 5/15/13 35/41/39 38/37/35 10/6/4
f 45/44/42 46/45/43 42/46/44 41/47/45
f 41/47/45 21/24/22 20/27/25 40/48/46
f 39/49/47 19/28/26 22/25/23 42/46/44
f 41/47/45 42/46/44 22/25/23 21/24/22
f 125/50/48 127/51/49 46/45/43 45/44/42
f 45/44/42 41/47/45 40/48/46 44/52/50
f 43/53/51 39/49/47 42/46/44 46/45/43
f 56/54/52 57/55/53 52/56/54 51/57/55
f 125/50/48 45/44/42 44/52/50 124/58/56
f 123/59/57 43/53/51 46/45/43 127/51/49
f 4/14/12 16/16/14 116/60/58 113/61/59
f 67/62/60 68/63/61 107/64/62 106/65/63
f 56/54/52 51/57/55 48/66/64 54/67/65
f 53/68/66 47/69/67 52/56/54 57/55/53
f 130/70/68 78/71/69 108/72/70 131/73/71
f 65/74/72 79/75/73 109/76/74 105/77/75
f 119/78/76 118/79/77 78/71/69 77/80/78
f 62/81/79 104/82/80 102/83/81 60/84/82
f 62/81/79 50/85/83 49/86/84 104/82/80
f 63/87/85 56/54/52 54/67/65 59/88/86
f 15/19/17 18/23/21 115/43/41 117/89/87
f 65/74/72 105/77/75 107/64/62 68/63/61
f 63/87/85 64/90/88 57/55/53 56/54/52
f 58/91/89 53/68/66 57/55/53 64/90/88
f 120/92/90 76/93/91 75/94/92 101/95/93
f 61/96/94 60/84/82 102/83/81 103/97/95
f 104/82/80 49/86/84 53/68/66 58/91/89
f 106/65/63 107/64/62 60/84/82 61/96/94
f 126/98/96 55/99/97 101/95/93 128/100/98
f 67/62/60 106/65/63 112/101/99 66/102/100
f 105/77/75 109/76/74 50/85/83 62/81/79
f 16/16/14 15/19/17 117/89/87 116/60/58
f 103/97/95 102/83/81 64/90/88 63/87/85
f 104/82/80 58/91/89 64/90/88 102/83/81
f 74/103/101 72/104/102 71/105/103
f 131/73/71 108/72/70 55/99/97 126/98/96
f 122/106/104 120/92/90 101/95/93 55/99/97
f 71/105/103 67/62/60 66/102/100 70/107/105
f 69/108/106 65/74/72 68/63/61 72/104/102
f 73/109/107 74/103/101 71/105/103 70/107/105
f 75/94/92 76/93/91 39/49/47 43/53/51
f 121/110/108 122/106/104 55/99/97 108/72/70
f 19/28/26 114/42/40 11/29/27
f 118/79/77 121/110/108 108/72/70 78/71/69
f 13/20/18 1/26/24 14/21/19
f 128/100/98 101/95/93 75/94/92 129/111/109
f 71/105/103 72/104/102 68/63/61 67/62/60
f 105/77/75 62/81/79 60/84/82 107/64/62
f 77/80/78 132/112/110 25/34/32 31/39/37
f 81/113/111 82/114/112 74/103/101 73/109/107
f 80/115/113 69/108/106 72/104/102 83/116/114
f 136/117/115 134/118/116 87/119/117 100/120/118
f 82/114/112 83/116/114 72/104/102 74/103/101
f 85/121/119 88/122/120 82/114/112 81/113/111
f 136/117/115 135/123/121 80/115/113 83/116/114
f 132/112/110 77/80/78 78/71/69 130/70/68
f 77/80/78 31/39/37 35/41/39 119/78/76
f 98/124/122 96/125/123 95/126/124 97/127/125
f 135/123/121 133/128/126 90/129/127 92/130/128
f 92/130/128 90/129/127 95/126/124 96/125/123
f 98/124/122 94/131/129 99/132/130
f 94/131/129 98/124/122 97/127/125 93/133/131
f 99/132/130 23/32/30 27/11/9 98/124/122
f 92/130/128 96/125/123 29/10/8 24/35/33
f 87/119/117 84/134/132 133/128/126 100/120/118
f 93/133/131 97/127/125 95/126/124 90/129/127
f 100/120/118 133/128/126 135/123/121 136/117/115
f 49/86/84 128/100/98 129/111/109 53/68/66
f 89/135/133 91/136/134 92/130/128 24/35/33
f 96/125/123 98/124/122 27/11/9 29/10/8
f 83/116/114 82/114/112 134/118/116 136/117/115
f 86/137/135 84/134/132 87/119/117 138/138/136 137/139/137
f 88/122/120 140/140/138 139/141/139 134/118/116 82/114/112
f 133/128/126 84/134/132 93/133/131 90/129/127
f 129/111/109 75/94/92 43/53/51 123/59/57
f 17/22/20 11/29/27 18/23/21
f 110/142/140 103/97/95 63/87/85 59/88/86
f 111/143/141 61/96/94 103/97/95 110/142/140
f 112/101/99 106/65/63 61/96/94 111/143/141
f 117/89/87 115/43/41 120/92/90 122/106/104
f 113/61/59 5/15/13 4/14/12
f 115/43/41 114/42/40 76/93/91 120/92/90
f 116/60/58 117/89/87 122/106/104 121/110/108
f 113/61/59 116/60/58 121/110/108 118/79/77
f 114/42/40 19/28/26 39/49/47 76/93/91
f 119/78/76 35/41/39 5/15/13
f 118/79/77 119/78/76 5/15/13 113/61/59
f 53/68/66 129/111/109 123/59/57 47/69/67
f 89/135/133 79/75/73 65/74/72 91/136/134
f 89/135/133 132/112/110 130/70/68 79/75/73
f 109/76/74 131/73/71 126/98/96 50/85/83
f 50/85/83 126/98/96 128/100/98 49/86/84
f 79/75/73 130/70/68 131/73/71 109/76/74
f 47/69/67 123/59/57 127/51/49 52/56/54
f 51/57/55 125/50/48 124/58/56 48/66/64
f 51/57/55 52/56/54 127/51/49 125/50/48
f 25/34/32 132/112/110 89/135/133 24/35/33
f 91/136/134 65/74/72 69/108/106 80/115/113
f 92/130/128 91/136/134 80/115/113 135/123/121
f 139/141/139 138/138/136 87/119/117 134/118/116
f 86/137/135 137/139/137 88/122/120 85/121/119
f 139/141/139 140/140/138 137/139/137 138/138/136
